<?xml version="1.0" encoding="UTF-8" standalone="no"?>
<svg
   xmlns:dc="http://purl.org/dc/elements/1.1/"
   xmlns:cc="http://creativecommons.org/ns#"
   xmlns:rdf="http://www.w3.org/1999/02/22-rdf-syntax-ns#"
   xmlns:svg="http://www.w3.org/2000/svg"
   xmlns="http://www.w3.org/2000/svg"
   xmlns:sodipodi="http://sodipodi.sourceforge.net/DTD/sodipodi-0.dtd"
   xmlns:inkscape="http://www.inkscape.org/namespaces/inkscape"
   version="1.1"
   x="0px"
   y="0px"
   viewBox="0 0 100 125"
   enable-background="new 0 0 100 100"
   xml:space="preserve"
   id="svg78"
   inkscape:version="0.91 r13725"
   sodipodi:docname="noun_67227_cc-ffffff.svg"><metadata
     id="metadata90"><rdf:RDF><cc:Work
         rdf:about=""><dc:format>image/svg+xml</dc:format><dc:type
           rdf:resource="http://purl.org/dc/dcmitype/StillImage" /><dc:title></dc:title></cc:Work></rdf:RDF></metadata><defs
     id="defs88" /><sodipodi:namedview
     pagecolor="#ffffff"
     bordercolor="#666666"
     borderopacity="1"
     objecttolerance="10"
     gridtolerance="10"
     guidetolerance="10"
     inkscape:pageopacity="0"
     inkscape:pageshadow="2"
     inkscape:window-width="640"
     inkscape:window-height="480"
     id="namedview86"
     showgrid="false"
     inkscape:zoom="1.888"
     inkscape:cx="50"
     inkscape:cy="62.5"
     inkscape:window-x="0"
     inkscape:window-y="0"
     inkscape:window-maximized="0"
     inkscape:current-layer="svg78" /><path
     d="m 51.244578,103.2979 c -14.604183,0 -30.033968,-10.621283 -36.192481,-23.17653 -10.507971,-21.416664 1.86243,-39.049677 7.145374,-46.579276 0.608697,-0.864961 1.195817,-1.703308 1.616,-2.364228 -2.074794,1.497049 -6.239143,3.965515 -9.019162,2.946413 -0.781312,-0.287211 -2.129303,-1.108924 -2.367785,-3.387765 -0.355452,-3.398854 2.682354,-6.91969 4.315388,-8.811516 1.248056,-1.447147 4.135959,-3.894544 7.062474,-3.894544 0.0045,0 0.0068,0 0.01136,0 1.404772,0.0022 2.632387,0.572205 3.55111,1.647862 0.718853,0.842783 1.114052,1.89848 1.276447,3.065068 C 39.623691,12.638862 53.086567,1.7248242 70.029009,8.1676772 73.912858,9.6436561 85.15331,15.825912 85.855128,24.578655 c 0.87557,10.905166 -1.814734,20.060449 -7.574642,25.776956 l -0.42359,0.424719 c -2.399583,2.398604 -5.120549,5.119905 -9.551771,3.831335 -1.533099,-0.444679 -3.128657,-1.500375 -4.528887,-2.790055 -1.353669,0.209587 -2.795917,0.272796 -4.338101,0.19628 -0.674563,-0.03327 -1.334363,-0.08871 -1.978265,-0.163012 1.093611,1.95947 1.168562,4.093041 0.187379,6.148988 -1.361618,2.854372 -4.667433,5.208619 -8.146999,6.018134 0.600748,0.126418 1.243513,0.228439 1.928297,0.302737 1.221937,0.135289 2.496112,0.194062 3.845239,0.256162 4.567497,0.211804 9.745963,0.451332 13.518521,4.017634 4.893424,4.619781 6.445828,15.704593 1.391145,21.146087 -1.914669,2.060382 -4.084855,3.078375 -6.490117,3.026255 -4.784403,-0.106456 -9.096384,-4.443461 -12.680428,-8.671791 -4.272234,-5.044499 -8.349141,-3.728206 -13.988672,-1.90846 -1.409315,0.454659 -2.86519,0.924843 -4.392611,1.304096 -4.036024,1.006903 -8.191288,-0.208478 -10.5886,-3.096118 -2.254223,-2.713539 -2.535859,-6.273188 -0.774499,-9.765192 2.89131,-5.730923 11.935456,-10.569162 19.40562,-9.848361 -0.12719,-0.367054 -0.231668,-0.747415 -0.311162,-1.141084 -0.900553,-3.187049 -0.0159,-6.753351 2.272393,-9.120906 1.225343,-1.269719 2.466585,-2.235592 3.70442,-3.06285 -2.261036,-1.911786 -3.864544,-4.379144 -4.690146,-7.32223 -1.393416,-4.97131 -0.671156,-12.547484 3.412564,-16.795775 2.389362,-2.485101 5.56458,-3.412162 9.186099,-2.682489 2.639201,0.532284 4.679925,2.185691 5.902997,4.780575 0.340689,0.726345 0.607561,1.502593 0.805161,2.308781 1.787479,-2.080343 4.289269,-3.428795 7.358872,-3.946663 4.103026,-0.691969 6.446964,0.962546 7.689341,2.469575 2.920837,3.545233 2.685762,9.639883 0.943707,13.829401 -2.290562,5.498049 -5.406727,9.027757 -9.56767,10.734392 0.618918,0.4225 1.233293,0.74298 1.799971,0.9071 2.540401,0.734109 4.042838,-0.611017 6.485575,-3.053978 l 0.431539,-0.432481 c 6.919384,-6.86868 7.170358,-17.637449 6.70475,-23.447106 C 82.27222,18.18903 73.046374,12.522425 68.9195,10.954405 52.570992,4.7399907 39.191016,17.049056 28.424122,27.072627 c -0.270279,1.401681 -0.690462,2.792272 -1.136764,4.037595 -0.346366,0.966982 -1.226478,2.222285 -2.559706,4.121873 -5.405592,7.70481 -16.6528569,23.735426 -6.911436,43.59516 7.079509,14.431547 27.256221,26.171735 42.656479,19.678979 9.217897,-3.885672 15.744354,-10.642351 18.379012,-19.023604 2.931057,-9.330493 5.562308,-18.472469 5.562308,-27.759714 0,-0.57775 -0.01022,-1.156609 -0.02044,-1.732141 -0.07041,-3.915613 -0.143089,-7.964298 2.89131,-11.479589 1.568303,-1.817528 4.685603,-2.715757 7.415654,-2.13468 2.264444,0.482382 3.891799,1.917331 4.467563,3.937792 1.277579,4.493363 0.0034,13.120798 -3.916783,14.866245 -1.170833,0.520086 -3.509092,0.849437 -6.001796,-2.829976 -0.466744,-0.688642 -0.273687,-1.617921 0.431538,-2.07258 0.70409,-0.454659 1.654611,-0.26836 2.123626,0.421391 0.863077,1.273046 1.718206,1.958361 2.175864,1.758755 1.7977,-0.800644 3.362596,-7.377677 2.236053,-11.343192 -0.271416,-0.954784 -1.001625,-1.565801 -2.16678,-1.81531 -1.598965,-0.340439 -3.585179,0.170775 -4.421002,1.139975 -2.295105,2.656984 -2.234916,5.979323 -2.171321,9.496832 0.01136,0.594384 0.02158,1.189876 0.02158,1.785369 0,9.700874 -2.695982,19.081268 -5.69972,28.637982 -2.899259,9.234017 -10.035549,16.653833 -20.090404,20.893251 -3.334205,1.40612 -6.864874,2.04486 -10.444375,2.04486 z M 44.28431,77.583042 c 3.071876,0 6.127852,1.114469 9.088435,4.607582 1.902178,2.243355 6.358384,7.500767 10.38873,7.589481 1.492216,0.0244 2.841343,-0.636523 4.149587,-2.045966 3.27061,-3.520836 3.249033,-12.736001 -1.251463,-16.98651 -2.943549,-2.780074 -7.116984,-2.974136 -11.534579,-3.178178 -1.33777,-0.06321 -2.720966,-0.126418 -4.041702,-0.271687 -3.339883,-0.367054 -5.948422,-1.307422 -7.787004,-2.798926 -6.164192,-2.715757 -16.52226,1.989411 -19.281837,7.459737 -1.22875,2.43409 -1.085661,4.762832 0.403148,6.555963 1.647797,1.983867 4.574312,2.800035 7.451994,2.08367 1.424079,-0.354856 2.828851,-0.808406 4.188198,-1.24754 2.718695,-0.87716 5.479408,-1.767626 8.226493,-1.767626 z M 43.357638,58.994136 c 0.69614,2.336504 0.695004,2.326524 3.356917,2.333177 l 0.260059,0 c 3.092317,0 6.705887,-2.102521 7.893754,-4.589839 0.712039,-1.493722 0.457658,-2.968592 -0.7586,-4.380253 -1.893092,-2.202325 -4.294947,-1.997174 -5.553223,-1.678912 -2.527909,0.636522 -4.667433,2.62926 -5.092158,4.739544 -0.269144,1.345126 -0.304349,2.539438 -0.106749,3.576283 z m 8.815884,-11.542799 c 2.805002,1.1555 5.678142,1.489286 7.421332,1.578 0.591663,0.02772 1.162884,0.03438 1.713663,0.01885 -0.455387,-0.634305 -0.8415,-1.266392 -1.134492,-1.861885 -0.7586,-1.54695 -1.39001,-3.346735 -1.799972,-5.250758 -1.86243,2.66031 -4.025803,4.200607 -6.200531,5.515791 z m 8.798849,-11.603788 c -0.288449,3.524163 0.628003,7.320012 1.963502,10.045749 0.404284,0.821713 1.077712,1.765408 1.87833,2.656984 4.143908,-1.131103 7.048846,-4.190627 9.291712,-9.575566 1.391145,-3.342299 1.586473,-8.303628 -0.491727,-10.825323 -1.072033,-1.301878 -2.633522,-1.760973 -4.780996,-1.399463 -3.075282,0.518976 -5.296571,2.03155 -6.600273,4.498908 -0.416776,0.787336 -0.724531,1.636773 -0.934622,2.523912 -0.07382,0.706385 -0.183972,1.401681 -0.325926,2.074799 z M 51.925955,23.414284 c -1.814735,0 -3.368275,0.660919 -4.632229,1.977213 -3.158183,3.285744 -3.856595,9.804004 -2.69144,13.959145 0.822195,2.934215 2.506332,4.984617 4.500496,6.417348 0.03407,-0.02107 0.07041,-0.04103 0.106749,-0.06321 2.901531,-1.688892 5.406728,-3.151564 7.430418,-6.723411 0.540559,-0.952566 0.98459,-2.157968 1.286667,-3.478697 0.07041,-0.780683 0.18965,-1.551386 0.363401,-2.307672 0.202142,-2.261098 -0.03861,-4.619781 -0.925537,-6.502735 -0.810839,-1.721052 -2.06798,-2.763441 -3.739625,-3.100554 -0.588256,-0.119764 -1.154934,-0.177428 -1.6989,-0.177428 z M 23.80325,21.022333 c -1.427485,0 -3.519313,1.438276 -4.716265,2.829976 -1.245785,1.44382 -3.836153,4.444571 -3.61357,6.581469 0.05451,0.513432 0.187379,0.812842 0.398605,0.890466 1.337771,0.491254 5.446475,-1.82529 6.976166,-3.215881 0.889198,-0.808407 1.796565,-1.650081 2.722102,-2.512824 0.254381,-1.858558 0.07154,-3.260239 -0.558729,-3.999892 -0.336146,-0.393668 -0.706361,-0.569987 -1.202631,-0.572205 -0.0023,-0.0011 -0.0034,-0.0011 -0.0057,-0.0011 z"
     id="path80"
     inkscape:connector-curvature="0"
     style="fill:#ffffff" /></svg>