<?xml version="1.0" encoding="UTF-8" standalone="no"?>
<svg
   xmlns:dc="http://purl.org/dc/elements/1.1/"
   xmlns:cc="http://creativecommons.org/ns#"
   xmlns:rdf="http://www.w3.org/1999/02/22-rdf-syntax-ns#"
   xmlns:svg="http://www.w3.org/2000/svg"
   xmlns="http://www.w3.org/2000/svg"
   xmlns:sodipodi="http://sodipodi.sourceforge.net/DTD/sodipodi-0.dtd"
   xmlns:inkscape="http://www.inkscape.org/namespaces/inkscape"
   version="1.1"
   x="0px"
   y="0px"
   viewBox="0 0 100 125"
   enable-background="new 0 0 100 100"
   xml:space="preserve"
   id="svg92"
   inkscape:version="0.91 r13725"
   sodipodi:docname="noun_67228_cc-ffffff.svg"><metadata
     id="metadata104"><rdf:RDF><cc:Work
         rdf:about=""><dc:format>image/svg+xml</dc:format><dc:type
           rdf:resource="http://purl.org/dc/dcmitype/StillImage" /><dc:title></dc:title></cc:Work></rdf:RDF></metadata><defs
     id="defs102" /><sodipodi:namedview
     pagecolor="#ffffff"
     bordercolor="#666666"
     borderopacity="1"
     objecttolerance="10"
     gridtolerance="10"
     guidetolerance="10"
     inkscape:pageopacity="0"
     inkscape:pageshadow="2"
     inkscape:window-width="640"
     inkscape:window-height="480"
     id="namedview100"
     showgrid="false"
     inkscape:zoom="1.888"
     inkscape:cx="50"
     inkscape:cy="62.5"
     inkscape:window-x="0"
     inkscape:window-y="0"
     inkscape:window-maximized="0"
     inkscape:current-layer="svg92" /><path
     d="m 53.300548,121.35605 c -0.931821,0 -1.879365,-0.0518 -2.841583,-0.16577 -11.52041,-1.35596 -18.082988,-16.38935 -17.556808,-29.540973 0.0566,-1.411647 0.169803,-2.829769 0.278813,-4.201268 0.204392,-2.565571 0.397255,-4.988682 0.257849,-7.406612 -0.01887,-0.316002 -0.07547,-0.729135 -0.242127,-0.898792 -0.464338,-0.474002 -2.009337,-0.238296 -3.137166,-0.06605 -1.270379,0.192968 -2.585829,0.393707 -3.697935,0.03108 -7.868595,-2.560391 -8.400016,-10.588645 -8.82662,-17.040777 l -0.08071,-1.200548 c -0.477964,-7.091905 -1.071227,-15.91923 1.236838,-22.945086 0.606889,-1.848091 2.116251,-4.080824 4.119299,-4.905796 1.336414,-0.549117 2.659201,-0.380756 3.824764,0.488249 1.165562,0.867709 1.814378,2.586292 2.44223,4.249186 0.382581,1.014054 1.023012,2.71062 1.474772,2.868621 0.104817,0.03885 0.373148,-0.03756 0.786126,-0.37169 2.32798,-1.879174 3.502976,-6.377017 4.539614,-10.345169 0.402496,-1.538565 0.782981,-2.994245 1.219019,-4.280268 2.389822,-7.042692 5.358233,-11.710192 9.927196,-15.608409 7.60236,-6.4883941 19.762153,-6.5220664 28.283756,-0.080295 6.236597,4.7154182 9.666202,10.3335122 10.481676,17.1793512 1.040831,8.726308 -0.06499,14.830061 -3.286006,18.140307 -2.025059,2.081208 -4.705224,2.950212 -7.754344,2.507292 -2.42546,-0.350969 -4.985085,-1.54245 -7.199863,-3.244197 2.047071,6.041589 3.814282,11.60788 4.528084,14.195467 1.134117,4.115792 4.535421,17.975831 0.619467,23.529171 -0.971651,1.37668 -2.834245,2.849195 -6.184189,2.047536 -0.762018,-0.182608 -1.807041,-0.534872 -3.01453,-0.942825 -3.9757,-1.340417 -11.375764,-3.833462 -14.214202,-1.405171 -0.695983,0.595741 -1.06389,1.46863 -1.159273,2.746883 -0.01991,0.257723 0.02306,0.422199 0.156177,0.606101 1.164514,1.609796 6.022771,1.728944 8.097095,1.780747 0.610033,0.01554 1.125732,0.02849 1.49888,0.05957 3.622467,0.28492 6.856064,-0.756331 10.27938,-1.862337 1.851064,-0.598331 3.765018,-1.217383 5.786933,-1.631812 1.353185,-0.278444 5.464098,-1.126727 6.796319,3.323198 0.679213,2.2677 1.017771,5.835669 -0.262042,8.421961 -1.532421,3.096558 -4.049071,3.757053 -6.567818,3.395723 0.616322,0.489544 1.150888,1.130612 1.582733,1.910255 1.202248,2.16409 1.611034,5.40182 1.091143,8.66155 -0.777741,4.87083 -5.161178,6.79792 -8.062506,8.07229 l -0.432893,0.19038 c -4.256609,1.89083 -9.252176,3.73763 -14.787549,3.73892 z M 32.040563,75.371337 c 1.089046,0 2.131973,0.239591 2.95164,1.072333 0.756777,0.769283 1.182333,1.89601 1.266187,3.3491 0.156177,2.714505 -0.05765,5.399224 -0.264138,7.998467 -0.105865,1.328761 -0.215923,2.704146 -0.268331,4.031611 -0.593263,14.831352 7.324595,24.984852 15.001375,25.888822 6.102432,0.7136 11.491062,-1.20055 16.401727,-3.38148 l 0.441279,-0.19426 c 2.570107,-1.13061 5.770163,-2.53578 6.235549,-5.45621 0.363714,-2.28453 0.10901,-4.64289 -0.647767,-6.00791 -0.447568,-0.80555 -1.05865,-1.28085 -1.868883,-1.45698 -1.428653,-0.30823 -3.083709,-0.092 -4.684261,0.11656 -0.550288,0.0725 -1.095336,0.14246 -1.623612,0.19297 -0.49788,0.0479 -1.037686,0.10879 -1.608937,0.17224 -5.154889,0.58279 -12.948015,1.46086 -16.469859,-4.247886 -1.239982,-2.012568 -1.686501,-4.983502 -1.084853,-7.2253 0.212778,-0.793889 0.564962,-1.402581 1.006241,-1.868813 -0.242127,-0.21887 -0.461194,-0.461052 -0.655105,-0.729135 -0.656153,-0.907857 -0.954881,-2.033289 -0.86369,-3.257148 0.173996,-2.319504 0.968507,-4.101546 2.364666,-5.296913 3.921195,-3.358165 11.53194,-0.791299 16.568386,0.905267 1.155081,0.388527 2.151888,0.72525 2.810137,0.883251 2.452713,0.58797 3.252465,-0.542642 3.514507,-0.913038 2.163418,-3.06936 0.912954,-12.574016 -1.164515,-20.106252 -0.831197,-3.013671 -2.974699,-9.657476 -5.297439,-16.394527 -0.357425,1.060677 -0.873124,2.060486 -1.649816,2.920425 -2.651864,2.935966 -7.251224,2.595357 -9.758441,2.13042 -3.565866,-0.660495 -6.537421,-3.614592 -7.571963,-7.527055 -0.940206,-3.557609 -0.147791,-7.22789 2.175996,-10.069315 2.568011,-3.14059 6.955641,-3.741511 9.945015,-2.976113 0.459097,0.117853 0.88675,0.259017 1.284005,0.418313 -0.72638,-1.747074 -1.332221,-3.040868 -1.746247,-3.65992 -0.496831,-0.744676 -0.41193,-1.845502 0.190767,-2.459374 0.603744,-0.615167 1.494687,-0.50897 1.991518,0.235706 0.950688,1.425893 2.564866,5.32152 4.349896,10.100397 1.640382,-3.864545 5.043783,-4.929108 7.805704,-4.22976 3.401304,0.861234 5.687358,4.163711 5.68631,8.221223 -0.001,3.829578 -1.397208,6.193114 -3.129829,7.429924 0.471676,0.138575 0.940207,0.243477 1.402449,0.310821 1.575395,0.226641 3.828956,0.112673 5.616082,-1.723763 2.37934,-2.443832 3.172803,-7.611236 2.298631,-14.945323 C 82.303346,21.867338 79.306635,17.056083 73.829959,12.91439 66.327175,7.2419013 55.257477,7.2302455 48.629913,12.889783 c -4.092047,3.490264 -6.760682,7.701892 -8.926196,14.08409 -0.390967,1.150038 -0.752584,2.535783 -1.135166,4.003119 -1.181285,4.519859 -2.519795,9.641935 -5.684213,12.197145 -1.087998,0.87807 -2.133021,1.150039 -3.108865,0.80684 -1.692791,-0.597036 -2.526084,-2.805162 -3.26085,-4.752975 -0.406689,-1.076219 -0.911905,-2.415341 -1.339558,-2.732637 -0.447567,-0.334133 -0.928676,-0.387232 -1.470579,-0.164477 -1.092191,0.448101 -2.029253,1.800174 -2.391919,2.903589 -2.054408,6.253983 -1.514602,14.269287 -1.038734,21.341767 l 0.08071,1.205727 c 0.494735,7.475252 1.194911,12.145342 6.728188,13.945515 0.588022,0.191673 1.626756,0.03238 2.631949,-0.119148 0.753633,-0.116558 1.551288,-0.237001 2.325884,-0.237001 z m 19.103904,15.030799 c -1.13831,0 -2.438038,0.159296 -2.642431,0.920808 -0.309209,1.153924 -0.02411,2.915245 0.650912,4.009595 2.573252,4.17148 9.42722,3.395722 13.961593,2.886752 0.585926,-0.06734 1.139359,-0.129508 1.64772,-0.177427 0.50312,-0.04792 1.020915,-0.115263 1.544999,-0.183902 1.237886,-0.161886 2.505121,-0.327658 3.769211,-0.28492 C 68.531472,96.854268 67.225455,96.00469 66.47287,95.473703 62.231984,92.487229 57.643106,90.808794 52.837258,90.486317 l -0.293487,-0.02072 c -0.333318,-0.0259 -0.84692,-0.06346 -1.399304,-0.06346 z m 12.839005,-0.323772 c 1.323836,0.677331 2.620419,1.46345 3.88975,2.357061 1.332222,0.937645 8.07718,5.396635 10.18819,1.130613 0.669779,-1.352073 0.517795,-3.733741 0.02306,-5.387569 -0.270428,-0.903972 -0.899328,-1.659009 -3.680117,-1.08917 -1.896135,0.389822 -3.746151,0.988153 -5.535373,1.565762 -1.592167,0.515446 -3.20949,1.038662 -4.88551,1.423303 z M 54.770079,31.120747 c -1.987326,0 -4.192671,0.686397 -5.484013,2.26511 -1.557578,1.90378 -2.081661,4.212923 -1.477917,6.501345 0.704369,2.665292 2.787078,4.689516 5.303728,5.155748 3.378245,0.624233 6.162178,0.14764 7.451424,-1.278253 1.150888,-1.273072 1.362618,-3.298591 1.606841,-5.645291 0.0042,-0.04274 0.0094,-0.08418 0.01363,-0.128214 -0.196007,-0.545232 -0.389918,-1.082694 -0.582781,-1.613681 -1.021963,-2.385553 -1.92758,-4.256956 -4.935821,-5.030124 -0.577541,-0.14764 -1.223212,-0.22664 -1.895087,-0.22664 z m 13.944822,10.176806 c 0.774596,0.28751 1.571203,0.35874 2.293391,0.207215 1.107913,-0.230526 2.966314,-1.181121 2.966314,-4.95242 0,-2.900998 -1.844775,-4.398121 -3.425412,-4.798303 -1.789222,-0.451986 -3.994566,0.247362 -4.887605,2.831064 -0.251561,0.72784 -0.401449,1.567057 -0.516747,2.467144 0.117395,0.22664 0.24003,0.446805 0.371051,0.663085 0.799752,1.314515 1.918147,2.544849 3.199008,3.582215 z"
     id="path94"
     inkscape:connector-curvature="0"
     style="fill:#ffffff" /></svg>