<?xml version="1.0" encoding="UTF-8" standalone="no"?>
<svg
   xmlns:dc="http://purl.org/dc/elements/1.1/"
   xmlns:cc="http://creativecommons.org/ns#"
   xmlns:rdf="http://www.w3.org/1999/02/22-rdf-syntax-ns#"
   xmlns:svg="http://www.w3.org/2000/svg"
   xmlns="http://www.w3.org/2000/svg"
   xmlns:sodipodi="http://sodipodi.sourceforge.net/DTD/sodipodi-0.dtd"
   xmlns:inkscape="http://www.inkscape.org/namespaces/inkscape"
   version="1.1"
   x="0px"
   y="0px"
   viewBox="0 0 100 125"
   enable-background="new 0 0 100 100"
   xml:space="preserve"
   id="svg18"
   inkscape:version="0.91 r13725"
   sodipodi:docname="noun_67233_cc-ffffff.svg"><metadata
     id="metadata30"><rdf:RDF><cc:Work
         rdf:about=""><dc:format>image/svg+xml</dc:format><dc:type
           rdf:resource="http://purl.org/dc/dcmitype/StillImage" /><dc:title></dc:title></cc:Work></rdf:RDF></metadata><defs
     id="defs28" /><sodipodi:namedview
     pagecolor="#ffffff"
     bordercolor="#666666"
     borderopacity="1"
     objecttolerance="10"
     gridtolerance="10"
     guidetolerance="10"
     inkscape:pageopacity="0"
     inkscape:pageshadow="2"
     inkscape:window-width="640"
     inkscape:window-height="480"
     id="namedview26"
     showgrid="false"
     inkscape:zoom="1.888"
     inkscape:cx="50"
     inkscape:cy="62.5"
     inkscape:window-x="0"
     inkscape:window-y="0"
     inkscape:window-maximized="0"
     inkscape:current-layer="svg18" /><path
     d="m 53.055105,115.12712 c -1.927101,0 -3.769248,-0.40625 -5.046902,-0.96545 -4.352742,-1.9052 -12.519445,-6.24298 -18.325337,-13.89681 C 23.08333,91.562376 21.21212,81.1052 24.124009,69.184558 c 0.584613,-2.394651 1.377139,-5.874666 2.148426,-9.384048 -1.400613,0.964223 -3.281883,1.24933 -5.947854,0.09422 -5.60357,-2.430137 -7.026539,-8.71105 -5.976917,-13.519931 0.980317,-4.493184 4.354978,-8.753877 9.714865,-8.665776 0.769052,-0.53228 1.81532,-0.907936 3.238289,-0.889582 1.735955,0.0257 3.583691,0.603252 5.527558,1.725324 0.529841,-1.598066 1.115572,-3.210815 1.833205,-4.813776 5.365476,-12.005072 17.95199,-23.020225 23.489608,-25.8162287 6.038397,-3.0444012 11.525714,-3.7210708 15.865043,-1.9504725 3.51327,1.4316517 6.218364,4.3952932 8.047097,8.8040462 1.281008,3.09457 3.255056,9.124638 2.085829,14.755802 -0.623737,2.997903 -1.88127,5.582218 -3.097445,8.082102 -1.346958,2.769084 -2.620141,5.383989 -3.03373,8.456534 -0.26492,1.965156 -0.271627,3.734531 -0.01341,5.332597 0.608087,-0.165191 1.221763,-0.310803 1.843264,-0.429495 0.235858,-0.04528 0.478422,-0.09544 0.72434,-0.146837 1.976284,-0.411141 4.681378,-0.972789 6.801859,0.796586 1.192701,0.997262 1.820908,2.326128 1.767254,3.740649 -0.05924,1.485492 -0.877479,2.885329 -2.246794,3.842211 -0.696394,0.485782 -1.418497,0.839413 -2.15625,1.093929 0.933369,0.595909 1.863385,1.315406 2.515067,2.355495 1.824262,2.913472 1.253062,7.823915 -0.476186,10.26996 -2.082476,2.942839 -5.827131,4.844366 -10.015556,5.08787 -3.621697,0.20557 -7.007536,-0.871228 -9.338165,-2.923262 3.831845,4.839472 10.432498,7.776194 14.426425,9.554134 0.925545,0.412365 1.715835,0.763547 2.306037,1.063338 l 0.994849,0.496795 c 3.848611,1.911316 8.211414,4.075925 9.104542,9.888186 0.460537,3.004021 0.05254,5.398673 -1.215056,7.116653 -1.40732,1.90887 -3.801664,2.92326 -7.324994,3.10191 -4.138123,0.20557 -9.736104,-2.56351 -11.411697,-7.029773 -1.133457,-3.024823 -5.719822,-8.969237 -8.034801,-9.910211 -0.12743,-0.05017 -0.231386,-0.08443 -0.315222,-0.106456 0.01789,0.402575 0.162082,1.086587 0.517545,1.758362 0.338696,0.63996 0.988142,1.196714 1.674476,1.785282 0.485128,0.416035 0.987024,0.845531 1.444207,1.355786 2.706212,3.019929 2.208788,5.417028 1.671123,6.57703 -1.363726,2.93917 -5.68517,4.14078 -9.07548,3.59749 -0.449359,-0.071 -0.870772,-0.17009 -1.270947,-0.28878 0.339813,0.81004 0.571199,1.74001 0.657271,2.81803 0.27498,3.41516 -1.177052,5.36074 -2.444646,6.39226 -1.671122,1.36802 -3.923504,1.87461 -6.07193,1.87461 z M 30.958284,52.320435 c -1.059681,5.229812 -2.840349,13.303349 -3.919033,17.716996 -6.251898,25.593528 13.364507,37.240079 22.088995,41.060259 2.38652,1.04499 6.25637,1.09638 8.208062,-0.49068 0.957961,-0.78067 1.362607,-1.91009 1.23853,-3.45309 -0.244799,-3.03828 -2.174135,-4.12732 -5.305114,-5.65197 -0.883068,-0.43071 -1.796317,-0.87612 -2.654793,-1.40595 -3.02367,-1.869713 -4.417576,-4.511539 -3.922387,-7.433577 0.281687,-1.653129 1.243002,-2.224567 1.792963,-2.419124 2.366399,-0.835742 5.405718,2.256381 5.744413,2.611235 1.085391,1.134308 1.919276,2.3506 2.725215,3.52896 1.624175,2.371402 2.908536,4.247236 5.671756,4.686516 2.398815,0.38055 5.346474,-0.52371 5.951207,-1.82566 0.399058,-0.862662 -0.538783,-2.105874 -1.134574,-2.770307 -0.319693,-0.356078 -0.723222,-0.702366 -1.151342,-1.068233 -0.840591,-0.721944 -1.792963,-1.539331 -2.423407,-2.72748 -0.947901,-1.787729 -1.39167,-4.260693 -0.2448,-5.752303 0.470597,-0.613041 1.577227,-1.512412 3.701061,-0.652197 3.436141,1.396166 8.449508,8.210584 9.775227,11.751781 1.122279,2.993009 5.487318,5.141709 8.483042,4.985089 2.608963,-0.13216 4.282321,-0.74642 5.115088,-1.87828 0.703101,-0.95077 0.900953,-2.464402 0.587966,-4.495634 -0.62709,-4.078372 -3.75248,-5.631163 -7.375294,-7.427458 L 82.897214,88.696625 C 82.340545,88.41519 81.594968,88.084808 80.72196,87.695693 74.812111,85.067327 62.070223,79.400678 61.401774,67.930334 59.750772,71.628155 55.942402,73.830697 52.434721,74.42783 47.591261,75.255006 43.234047,73.28985 41.340481,69.431732 39.564285,65.811 40.129895,61.67267 40.628438,58.023793 c 0.05813,-0.423377 0.116252,-0.84186 0.167671,-1.24933 0.544372,-4.290061 -0.644975,-7.482522 -4.106825,-11.024942 -0.680745,-0.697471 -1.450915,-1.434099 -2.275857,-2.134018 -0.913248,2.887777 -1.909215,5.839182 -3.455143,8.704932 z m 18.674094,41.132456 c -0.182203,1.732665 1.227352,2.999126 2.467001,3.766345 0.731046,0.451521 1.541457,0.845531 2.397697,1.264014 0.06483,0.03059 0.128548,0.0624 0.194499,0.093 -0.0503,-0.07219 -0.100603,-0.144389 -0.150904,-0.217807 -0.731046,-1.068232 -1.487802,-2.174398 -2.393226,-3.120267 -0.807057,-0.84186 -1.921511,-1.583382 -2.515067,-1.785281 z m 27.89377,-32.518073 c -1.09098,0 -2.124952,0.03671 -3.078442,0.226373 -3.329949,0.658315 -6.421805,3.112924 -7.191974,5.709476 -0.494071,1.672707 -0.0045,3.366217 1.457621,5.035253 1.702421,1.943131 4.66014,2.98322 7.893957,2.803346 3.326596,-0.192111 6.237367,-1.617644 7.791119,-3.81162 1.103276,-1.561357 1.30001,-4.900654 0.374466,-6.380027 -0.465008,-0.740299 -1.415145,-1.303171 -2.420054,-1.901528 -0.699747,-0.416035 -1.422969,-0.844307 -2.060119,-1.385153 -0.111781,-0.09422 -0.21909,-0.187216 -0.3264,-0.28266 -0.471715,0.0037 -0.941194,-0.0012 -1.411791,-0.0061 -0.348756,-0.0037 -0.690805,-0.0073 -1.028383,-0.0073 z M 43.677817,52.050012 c 0.308515,1.627433 0.338695,3.339297 0.105074,5.175972 -0.05365,0.42093 -0.112899,0.849202 -0.171025,1.284815 -0.450476,3.295247 -0.916602,6.703067 0.385644,9.355906 1.55487,3.170435 5.270462,3.75778 7.975557,3.29647 3.134332,-0.533505 6.563766,-2.640603 7.162911,-6.146314 0.63715,-3.738202 -2.383166,-5.290993 -7.365234,-7.516783 -3.143275,-1.401061 -6.37821,-2.846173 -8.092927,-5.450066 z m 19.855616,8.722063 c 0.144197,0 0.291748,0.02325 0.437063,0.07097 0.796996,0.263081 1.248591,1.185701 1.008262,2.058152 -0.25486,0.920173 -0.415824,1.80486 -0.497424,2.657733 1.368196,-4.067359 5.733235,-6.915979 9.430942,-7.647712 1.051857,-0.208018 2.137248,-0.265529 3.21705,-0.275318 -0.437062,-0.691353 -0.811528,-1.415744 -1.125632,-2.174397 -0.365523,0.127258 -0.735517,0.255739 -1.109983,0.386668 -2.648086,0.927515 -5.385597,1.888067 -8.328784,2.03368 -4.562891,0.225148 -9.225266,-2.815582 -12.091325,-5.736396 -0.724339,-0.739075 -1.388317,-1.594395 -2.027703,-2.420348 -1.450914,-1.87216 -2.822464,-3.641535 -4.71603,-3.924194 -0.656153,-0.09789 -1.536985,-0.06485 -2.000875,0.647302 -0.478422,0.732957 -0.439299,1.963932 0.09949,3.137397 0.980317,2.134018 4.081115,3.519172 7.082428,4.859051 3.689883,1.648235 8.104105,3.618285 9.117957,7.737037 0.02124,-0.07709 0.04136,-0.156625 0.06372,-0.234937 0.195616,-0.714603 0.793643,-1.174689 1.440854,-1.174689 z m 15.423509,-6.22952 c 0.522016,1.119625 1.225117,2.138912 2.113774,3.072544 1.560459,-0.08198 3.002431,-0.357301 4.207428,-1.197937 0.511956,-0.357301 0.839473,-0.816164 0.854005,-1.197938 0.01789,-0.411141 -0.357699,-0.789244 -0.582378,-0.97646 -1.049621,-0.876122 -2.758749,-0.522491 -4.406398,-0.17865 -0.263802,0.05506 -0.522016,0.108903 -0.771287,0.156625 -0.476186,0.09055 -0.945665,0.200676 -1.415144,0.321816 z M 21.886158,41.322413 c -2.606727,0.879793 -4.087822,3.455543 -4.603132,5.819603 -0.756755,3.467779 0.220208,7.97687 4.154891,9.682616 3.194694,1.38393 3.989455,-0.01591 5.640457,-3.597484 0.325282,-0.704813 0.661742,-1.434099 1.041797,-2.138912 0.10172,-0.510255 0.196734,-0.987473 0.280569,-1.426757 0.620384,-3.226723 0.467244,-5.557746 -0.456065,-6.928216 -0.577907,-0.856543 -1.49898,-1.386377 -2.805697,-1.610302 -0.850652,1.587053 -0.261567,4.961836 0.783583,7.209651 0.377819,0.812493 0.0816,1.806084 -0.660624,2.219672 -0.739989,0.412365 -1.651002,0.08933 -2.027703,-0.723167 -0.833885,-1.793848 -1.948339,-5.450066 -1.348076,-8.506704 z m 25.341816,1.13798 c 0.295101,0 0.598027,0.02325 0.907659,0.06975 3.038201,0.452745 4.935121,2.900013 6.607361,5.058503 0.611441,0.789244 1.188229,1.533213 1.785139,2.140136 2.307155,2.3506 6.299963,5.03403 9.898186,4.855379 2.541894,-0.127258 4.973126,-0.978907 7.547437,-1.880725 0.368876,-0.128482 0.742224,-0.258187 1.116689,-0.386669 -0.367758,-2.03735 -0.384525,-4.2766 -0.05365,-6.732434 0.489599,-3.637863 1.94722,-6.632096 3.355658,-9.528437 1.174816,-2.41423 2.283681,-4.69386 2.817993,-7.263491 0.712043,-3.422504 0.02124,-8.035604 -1.891331,-12.65727 C 77.834663,12.553556 75.697415,10.173588 72.964375,9.0588571 68.452904,7.2185116 63.10643,9.0539625 59.41543,10.916333 54.369646,13.461492 42.353215,24.039808 37.372264,35.183442 c -0.753402,1.684944 -1.365961,3.426175 -1.925982,5.153946 1.075331,0.846755 2.176371,1.848911 3.300885,3.000351 1.592876,1.628656 2.803462,3.262208 3.652996,4.956941 -0.106192,-1.388825 0.186674,-2.71402 0.87189,-3.763898 0.876361,-1.342327 2.287034,-2.070389 3.955921,-2.070389 z M 30.50669,40.98102 c 0.384526,0.616711 0.681863,1.30317 0.893128,2.065494 0.141962,-0.444179 0.282806,-0.89203 0.423649,-1.341103 C 31.38864,41.437435 30.948224,41.192708 30.50669,40.98102 Z"
     id="path20"
     inkscape:connector-curvature="0"
     style="fill:#ffffff" /></svg>