<?xml version="1.0" encoding="UTF-8" standalone="no"?>
<svg
   xmlns:dc="http://purl.org/dc/elements/1.1/"
   xmlns:cc="http://creativecommons.org/ns#"
   xmlns:rdf="http://www.w3.org/1999/02/22-rdf-syntax-ns#"
   xmlns:svg="http://www.w3.org/2000/svg"
   xmlns="http://www.w3.org/2000/svg"
   xmlns:sodipodi="http://sodipodi.sourceforge.net/DTD/sodipodi-0.dtd"
   xmlns:inkscape="http://www.inkscape.org/namespaces/inkscape"
   version="1.1"
   x="0px"
   y="0px"
   viewBox="0 0 100 125"
   enable-background="new 0 0 100 100"
   xml:space="preserve"
   id="svg46"
   inkscape:version="0.91 r13725"
   sodipodi:docname="noun_67334_cc-fffffff.svg"><metadata
     id="metadata58"><rdf:RDF><cc:Work
         rdf:about=""><dc:format>image/svg+xml</dc:format><dc:type
           rdf:resource="http://purl.org/dc/dcmitype/StillImage" /><dc:title></dc:title></cc:Work></rdf:RDF></metadata><defs
     id="defs56" /><sodipodi:namedview
     pagecolor="#ffffff"
     bordercolor="#666666"
     borderopacity="1"
     objecttolerance="10"
     gridtolerance="10"
     guidetolerance="10"
     inkscape:pageopacity="0"
     inkscape:pageshadow="2"
     inkscape:window-width="640"
     inkscape:window-height="480"
     id="namedview54"
     showgrid="false"
     inkscape:zoom="1.888"
     inkscape:cx="50"
     inkscape:cy="62.5"
     inkscape:window-x="0"
     inkscape:window-y="0"
     inkscape:window-maximized="0"
     inkscape:current-layer="svg46" /><path
     d="M84.718,44.365c-0.22-7.704-5.269-9.586-8.286-10.71c-0.958-0.357-2.27-0.847-2.309-1.211  c-0.021-0.189-0.038-0.485-0.062-0.873C72.353,4.102,56.932,0,47.891,0c-7.707,0-13.755,2.334-17.976,6.938  c-8.375,9.133-7.021,24.727-6.576,29.85c0.028,0.317,0.057,0.656,0.078,0.934c-0.221,0.041-0.504,0.077-0.734,0.107  c-2.241,0.29-6.414,0.829-7.815,7.996c-1.441,7.362,6.686,10.9,11.542,13.015c1.312,0.57,3.094,1.347,3.503,1.744  c0.242,0.765,0.27,3.696,0.295,6.29c0.087,9.374,0.236,25.062,8.026,30.59c2.188,1.553,6.842,2.307,14.227,2.307h0.001  c5.426,0,10.971-0.422,13.687-0.662c0.046-0.007,0.101-0.005,0.146-0.012c0.98-0.088,1.566-0.149,1.572-0.15  c2.953-0.211,5.312-1.369,7.01-3.442c4.665-5.7,3.195-17.158,2.015-26.365c-0.539-4.195-1.272-9.915-0.534-11.042  C78.632,57.38,85.029,55.199,84.718,44.365z M75.293,55.084c-3.292,1.031-2.607,6.373-1.57,14.461  c1.046,8.145,2.477,19.3-1.318,23.937c-0.584,0.713-1.285,1.25-2.112,1.631c0-0.001,0.001-0.002,0.001-0.003  c0.446-2.711-1.148-5.489-3.627-6.324c-1.436-0.485-3.999-0.509-8.061-0.509c-2.289,0-6.05,0-8.216-0.312  c1.845-0.646,4.929-1.353,7.186-1.871c6.403-1.468,10.078-2.388,11.158-4.23c0.335-0.572,0.419-1.227,0.238-1.844  c-0.816-2.782-4.153-2.93-8.017-3.102c-3.949-0.177-8.864-0.396-11.481-3.439c-1.554-1.807-2.259-4.579-2.116-8.243  c0.891,0.596,2.459,1.892,5.011,4.716c2.413,2.674,4.744,3.404,6.574,3.404c1.007,0,1.863-0.222,2.496-0.464  c3.725-1.425,6.523-6.045,6.535-9.223c0.015-3.428-3.315-7.476-5.99-10.728c-0.733-0.891-1.366-1.659-1.804-2.27  c-1.408-1.955-2.926-6.667-4.298-11.974c2.249,1.036,4.244,1.583,5.919,1.583c3.045,0,5.202-1.741,5.912-4.776  c0.971-4.142-0.92-10.349-3.551-11.653c-1.899-0.942-3.682-1.42-5.297-1.42c-2.508,0-4.597,1.213-5.899,3.273  c-0.916-4.646-1.502-8.232-1.529-8.862c-0.002-0.873-0.706-1.584-1.582-1.592c-0.004,0-0.01,0-0.014,0  c-0.875,0-1.589,0.706-1.596,1.582c-0.004,0.498,0.388,3.13,1.055,6.774c-1.34-0.99-2.915-1.667-4.646-1.802  c-6.298-0.483-9.646,4.123-9.737,8.677c-0.091,4.533,2.978,9.25,9.022,9.493c0.11,0.004,0.221,0.006,0.333,0.006  c2.641,0,5.54-1.254,7.386-3.194c0.12-0.126,0.229-0.258,0.339-0.39c1.642,6.81,3.636,13.42,5.592,16.138  c0.499,0.694,1.162,1.5,1.93,2.433c2.1,2.553,5.273,6.412,5.265,8.688c-0.007,1.788-1.936,5.28-4.484,6.254  c-1.809,0.69-3.68-0.016-5.562-2.097c-5.34-5.915-7.588-6.6-8.955-6.199c-0.758,0.057-1.382,0.64-1.465,1.42  c-0.597,5.593,0.299,9.688,2.736,12.524c3.518,4.092,9.198,4.345,13.76,4.548c1.254,0.056,3.572,0.159,4.596,0.487  c-1.661,0.811-5.873,1.775-8.548,2.389c-7.013,1.608-9.95,2.44-10.761,4.233c-0.295,0.65-0.268,1.359,0.075,1.996  c1.102,2.043,4.633,2.257,12.43,2.257c2.826,0,6.027,0,7.041,0.34c1.107,0.375,1.669,1.742,1.497,2.784  c-0.141,0.863-0.751,1.313-1.774,1.38c-2.817,0.24-7.918,0.606-12.907,0.606c-0.001,0-0.002,0-0.002,0  c-8.663,0-11.475-1.077-12.379-1.72c-6.462-4.582-6.601-19.251-6.684-28.016c-0.045-4.922-0.093-6.962-0.812-8.02  c-0.752-1.104-2.404-1.823-4.902-2.911c-5.604-2.439-10.56-5-9.685-9.475c0.961-4.91,3.062-5.181,5.094-5.444  c1.172-0.152,2.777-0.359,3.406-1.908c0.202-0.497,0.164-0.937,0.022-2.573c-0.416-4.778-1.678-19.318,5.748-27.417  c3.591-3.917,8.848-5.903,15.624-5.903c13.874,0,21.822,9.882,22.984,28.577c0.028,0.448,0.05,0.791,0.073,1.009  c0.245,2.331,2.437,3.146,4.368,3.867c2.976,1.109,6.053,2.256,6.212,7.811C81.774,53.053,77.231,54.476,75.293,55.084z   M54.927,29.192c0.309-1.333,1.229-3.569,3.939-3.569c1.118,0,2.424,0.366,3.872,1.084c0.928,0.542,2.668,5.129,1.825,8.244  c-0.401,1.478-1.252,2.138-2.762,2.138c-1.319,0-3.02-0.504-5.054-1.498C55.169,34.82,54.317,31.83,54.927,29.192z M50.566,31.631  c0.065,1.313-0.627,2.333-1.221,2.957c-1.253,1.317-3.29,2.201-5.072,2.201l-0.204-0.004c-4.201-0.169-6.021-3.255-5.96-6.239  c0.056-2.78,1.82-5.584,5.638-5.584c0.214,0,0.435,0.009,0.659,0.026C47.699,25.245,50.421,28.77,50.566,31.631z"
     id="path48"
     style="fill:#ffffff" /></svg>