<?xml version="1.0" encoding="UTF-8" standalone="no"?>
<svg
   xmlns:dc="http://purl.org/dc/elements/1.1/"
   xmlns:cc="http://creativecommons.org/ns#"
   xmlns:rdf="http://www.w3.org/1999/02/22-rdf-syntax-ns#"
   xmlns:svg="http://www.w3.org/2000/svg"
   xmlns="http://www.w3.org/2000/svg"
   xmlns:sodipodi="http://sodipodi.sourceforge.net/DTD/sodipodi-0.dtd"
   xmlns:inkscape="http://www.inkscape.org/namespaces/inkscape"
   version="1.1"
   x="0px"
   y="0px"
   viewBox="0 0 100 125"
   enable-background="new 0 0 100 100"
   xml:space="preserve"
   id="svg88"
   inkscape:version="0.91 r13725"
   sodipodi:docname="noun_75321_cc-fffffff.svg"><metadata
     id="metadata100"><rdf:RDF><cc:Work
         rdf:about=""><dc:format>image/svg+xml</dc:format><dc:type
           rdf:resource="http://purl.org/dc/dcmitype/StillImage" /><dc:title></dc:title></cc:Work></rdf:RDF></metadata><defs
     id="defs98" /><sodipodi:namedview
     pagecolor="#ffffff"
     bordercolor="#666666"
     borderopacity="1"
     objecttolerance="10"
     gridtolerance="10"
     guidetolerance="10"
     inkscape:pageopacity="0"
     inkscape:pageshadow="2"
     inkscape:window-width="640"
     inkscape:window-height="480"
     id="namedview96"
     showgrid="false"
     inkscape:zoom="1.888"
     inkscape:cx="50"
     inkscape:cy="62.5"
     inkscape:window-x="0"
     inkscape:window-y="0"
     inkscape:window-maximized="0"
     inkscape:current-layer="svg88" /><path
     d="M26.1,46.5c0.8,0.3,1.8,0.4,2.8,0.4c3,0,6.1-0.4,9.1-1.4c-0.6,1.8-1.1,3.5-1.6,5.1c-0.2,0.6-0.3,1.2-0.5,1.7  c-0.9,3-1.5,6.1-1.7,9.4c0,0.7,0,1.7,0.5,2.7c0.8,1.4,2.4,1.8,3.3,2.1c2.5,0.7,5.7,1.6,8.8,0.7c2.3-0.6,5.2-3.1,6.4-5.6  c0.1-0.2,0.2-0.2,0.3-0.2c0.1,0,0.2,0.1,0.2,0.1c3.3,3.4,4,8.2,3.6,11.6c-0.3,2.7-1.4,4.8-2.8,5.6c-6,3.6-12.7,5.1-19,4.3  c-0.6-0.1-1.3-0.2-1.8-0.5c-0.4-0.3-0.8-0.9-1-1.5c-1.1-2.3-1.9-4.6-2.4-7.1c-0.2-0.7-0.8-1.2-1.6-1.2c-1.6,0.1-3.2,1.1-4.3,2.8  c-2.5,3.7-1.8,9.3,1.7,13c2.6,2.8,6.4,4.6,11.7,5.5c2.7,0.5,5.7,0.7,9.4,0.8c0.4,0,0.8,0,1.2,0c2.6,0,5.5-0.2,8.2-1.3  c4.1-1.7,7.6-5.5,9.6-10.5c1.7-4.4,2.2-9,2.7-13.5l0.9-8.6c2.2,1.1,5,0.9,6.9-0.7c1.9-1.6,2.7-4.3,2-6.7c-0.6-1.9-2.1-3.3-3.9-3.7  c-2.2-0.5-4.7,0.7-6.1,2.9c-0.1-0.7-0.1-1.5-0.1-2.2l0-10.2c0-3.7,0-7.5-1.2-11.2c-1.4-4.3-4.2-7.6-7.8-8.8  c-1.2-0.4-3.9-0.6-7.4-0.7c0.1-0.1,0.1-0.2,0.2-0.3c0.3-0.5,0.7-1.1,1.1-1.7c1.2-1.7,2.5-3.6,2.5-5.8c0-2.2-1.4-4.3-3.6-5.4  c-1.9-0.9-4-1-5.7-1c-2.4,0-5.4,0.2-7.9,1.9c-2.4,1.6-3.3,4.7-2.2,8.1c0.6,1.8,2.2,3.7,4.1,5c-0.4,0-0.7,0-1.1-0.1  c-0.5,0-0.9-0.1-1.4-0.1c-0.5,0-1-0.1-1.6-0.1c-1.7-0.2-3.5-0.3-5.4,0c-2.5,0.5-5.4,2.4-5.7,5.5c-0.1,0.8,0.5,1.6,1.3,1.7  c0.8,0.1,1.6-0.5,1.7-1.3c0.2-1.5,1.8-2.5,3.3-2.8c1.4-0.3,2.9-0.1,4.5,0c0.6,0.1,1.1,0.1,1.7,0.1c0.4,0,0.9,0.1,1.3,0.1  c3,0.2,6.5,0.5,9.3-0.7c0.2,0,0.4,0,0.6,0c2.8,0.1,8.1,0.2,9.4,0.7c2.6,0.9,4.8,3.5,5.9,6.9c1,3.2,1,6.8,1,10.3l0,10.2  c0,2.5,0.2,5.4,1.5,7.7c0,0.2-0.1,0.5-0.1,0.7L66,69.1c-0.5,4.3-0.9,8.7-2.5,12.8c-1.7,4.3-4.6,7.5-7.9,8.9  c-2.6,1.1-5.6,1.1-8.3,1.1c-3.6-0.1-6.4-0.3-9-0.7c-4.6-0.8-7.8-2.3-10-4.6c-2.2-2.4-3.3-6.5-1.4-9.3c0.3-0.4,0.5-0.7,0.9-0.9  c0.6,2.1,1.3,4.1,2.3,6c0.4,0.9,1,1.9,2,2.6c1,0.7,2.1,0.9,3.2,1.1c6.9,0.9,14.4-0.8,20.9-4.7c2.2-1.3,3.8-4.2,4.2-7.8  c0.5-4.1-0.4-9.9-4.4-14.1c-0.8-0.8-1.8-1.1-2.9-0.9c-1.1,0.2-2,0.9-2.5,1.9c-0.9,1.8-3.2,3.7-4.5,4c-2.3,0.6-4.9-0.1-7.2-0.7  c-0.5-0.1-1.3-0.4-1.6-0.7c-0.1-0.2-0.1-0.5-0.1-0.9c0.2-3,0.7-6,1.6-8.7c0.2-0.5,0.3-1.1,0.5-1.7c0.6-2.2,1.4-4.7,2.3-7.1  c0.2,0.1,0.3,0.3,0.5,0.4c3.2,2.5,7.7,3.3,12.8,2.4c4-0.7,7.9-3.2,7.8-7.1c-0.1-1.5-0.8-3-2-4.3C57,32,50.5,29.9,46,32.9  c-2.2,1.4-3.8,3.5-5.2,5.9c-0.1-0.1-0.2-0.3-0.3-0.4c-1-1.3-2-2.7-3.3-3.9c-3.2-2.9-7.8-4.2-12-3.3c-1.6,0.4-2.7,1-3.4,2.1  c-0.5,0.8-0.6,1.7-0.7,2.4C20.9,38.6,20.2,44.6,26.1,46.5z M71.2,54.4c0.6-1,1.8-2,3-1.7c0.7,0.2,1.4,0.8,1.7,1.7  c0.4,1.2-0.1,2.7-1,3.5c-1,0.8-2.5,0.9-3.6,0.3c-0.4-0.2-0.7-0.5-1-0.8C70.5,56.3,70.7,55.3,71.2,54.4z M50,17.7  c-0.4,0.8-1,1.3-1.7,1.7c-0.9,0-1.6-0.1-2-0.1c-2.4-0.2-5.9-2.9-6.6-5.1c-0.5-1.6-0.5-3.6,1-4.6c1.9-1.2,4.4-1.4,6.3-1.4  c0.1,0,0.1,0,0.2,0c1.4,0,3,0.1,4.2,0.7c1.2,0.6,2,1.7,2,2.7c0,1.3-1,2.7-2,4.1C50.8,16.4,50.4,17,50,17.7z M47.6,35.4  c3.1-2.1,8.2-0.4,10.9,2.4c0.7,0.7,1.1,1.6,1.2,2.3c0.1,2.3-3.1,3.7-5.3,4.1c-2.5,0.4-7.1,0.8-10.5-1.8c-0.4-0.3-0.7-0.6-1.1-1  C44.1,38.9,45.6,36.7,47.6,35.4z M24.2,36.1c0-0.4,0.1-0.9,0.3-1.2c0.1-0.2,0.5-0.5,1.5-0.7c0.7-0.2,1.5-0.2,2.2-0.2  c2.6,0,5.2,1,7.1,2.8c1.1,1,1.9,2.2,2.9,3.5c0.4,0.6,0.8,1.1,1.2,1.7c-3.3,1.4-6.8,2.1-10.4,2.1c-0.7,0-1.3-0.1-1.9-0.3  C24,42.7,23.7,40.2,24.2,36.1z"
     id="path90"
     style="fill:#ffffff" /></svg>