<?xml version="1.0" encoding="UTF-8" standalone="no"?>
<svg
   xmlns:dc="http://purl.org/dc/elements/1.1/"
   xmlns:cc="http://creativecommons.org/ns#"
   xmlns:rdf="http://www.w3.org/1999/02/22-rdf-syntax-ns#"
   xmlns:svg="http://www.w3.org/2000/svg"
   xmlns="http://www.w3.org/2000/svg"
   xmlns:sodipodi="http://sodipodi.sourceforge.net/DTD/sodipodi-0.dtd"
   xmlns:inkscape="http://www.inkscape.org/namespaces/inkscape"
   version="1.1"
   x="0px"
   y="0px"
   viewBox="0 0 100 125"
   enable-background="new 0 0 100 100"
   xml:space="preserve"
   id="svg102"
   inkscape:version="0.91 r13725"
   sodipodi:docname="noun_75323_cc-fffffff.svg"><metadata
     id="metadata114"><rdf:RDF><cc:Work
         rdf:about=""><dc:format>image/svg+xml</dc:format><dc:type
           rdf:resource="http://purl.org/dc/dcmitype/StillImage" /><dc:title></dc:title></cc:Work></rdf:RDF></metadata><defs
     id="defs112" /><sodipodi:namedview
     pagecolor="#ffffff"
     bordercolor="#666666"
     borderopacity="1"
     objecttolerance="10"
     gridtolerance="10"
     guidetolerance="10"
     inkscape:pageopacity="0"
     inkscape:pageshadow="2"
     inkscape:window-width="640"
     inkscape:window-height="480"
     id="namedview110"
     showgrid="false"
     inkscape:zoom="1.888"
     inkscape:cx="50"
     inkscape:cy="62.5"
     inkscape:window-x="0"
     inkscape:window-y="0"
     inkscape:window-maximized="0"
     inkscape:current-layer="svg102" /><path
     d="M69.7,10.5c-5.7-3.5-12.2-5.3-18.8-5.3H44c-5.8,0-11.4,1.6-16.3,4.6C18.6,15.5,13,25.6,13,36.3v13.2c0,3.5,0.6,7,1.9,10.2  c4.1,10.6,14,17.7,25.3,18.3c4.3,0.2,8.6-0.5,12.7-2l9.1-3.5c3.7-1.4,6.2-4.8,6.4-8.7c0.2-2.4-0.6-4.8-2.1-6.8l-9.7-12.4  c-1.1-1.4-1.9-3.1-2.4-4.8c-0.3-1.2-0.4-2.5-0.3-3.7l8.6-0.3c2.5-0.1,4.7-1.8,5.3-4.3c0.4-1.7,0.1-3.4-0.8-4.9  c-0.9-1.5-2.4-2.5-4.1-2.9c-0.2-0.1-0.5,0-0.7,0l-1.7,0.5c-4.5,1.3-7.7,4.7-9,8.9l-7,0.2c-0.4-2.7-1.7-5.2-3.7-7.2  c-2.8-2.7-6.6-3.9-10.4-3.5l-0.4,0c0,0-0.1,0-0.1,0c-2.1,0.4-3.9,1.9-4.7,3.9c-0.9,2-0.7,4.2,0.4,6.1c1.5,2.5,4.3,4.1,7.3,4l8.7-0.3  c-0.4,2.9-1.7,5.7-3.9,7.7l-4.2,4.1c0,0-0.1,0.1-0.1,0.1L28.9,54c-2.9,3.5-2.6,8.5,0.6,11.7c1.1,1.1,2.4,1.8,3.8,2.2  c7.4,2.1,15.5,1.6,22.6-1.4l2.1-0.9c1.3-0.5,2.2-1.7,2.5-3.1c0.3-1.4-0.2-2.8-1.2-3.9c-2.9-2.9-7.5-3.4-10.9-1.2l-2.7,1.7  c-0.7,0.4-0.9,1.4-0.5,2.1c0.4,0.7,1.4,0.9,2.1,0.5l2.7-1.7c2.3-1.4,5.3-1.1,7.2,0.8c0.3,0.3,0.4,0.7,0.3,1.1  c-0.1,0.4-0.3,0.7-0.7,0.9l-2.1,0.9c-6.5,2.7-13.8,3.2-20.6,1.2c-0.9-0.3-1.8-0.8-2.5-1.5c-2.1-2.1-2.3-5.4-0.4-7.7l4.5-5.5l4.2-4  c2.7-2.7,4.4-6.2,4.8-10l6.4-0.2c-0.1,1.4,0,2.9,0.4,4.3c0.5,2.2,1.5,4.2,2.9,5.9L64,58.9c1.1,1.3,1.6,3,1.5,4.7  c-0.2,2.7-1.9,5.1-4.5,6.1l-9.1,3.5c-3.7,1.4-7.6,2-11.5,1.8c-10.1-0.5-19-6.9-22.7-16.3c-1.1-2.9-1.7-6-1.7-9.2V36.3  c0-9.7,5.1-18.8,13.3-23.9c4.4-2.7,9.5-4.2,14.7-4.2h6.9c6.1,0,12.1,1.7,17.3,4.8c10.3,6.3,15.9,18.1,15.9,33.4  c0,19.4-4.4,45.3-42.7,45.3c-15.4,0-24-9.3-25.5-12.9c-0.2-1,0.5-1.5,0.7-1.6c0.2-0.1,1-0.6,1.8,0.1c4.5,3.5,19.8,11.7,35.9,8  c12.7-3,22.4-6.9,21.1-27.6c-0.1-0.8-0.7-1.5-1.6-1.4c-0.8,0.1-1.5,0.8-1.4,1.6c1.2,18.5-6.7,21.7-18.8,24.5  C38.7,85.9,24.2,78,20.3,75c-1.6-1.2-3.6-1.3-5.3-0.2c-1.7,1.1-2.4,3-1.9,5c0,0.1,0,0.1,0.1,0.2c1.8,4.7,11.5,14.8,28.3,14.8  c18.3,0,31.3-5.9,38.6-17.5c6.4-10.1,7.1-22.4,7.1-30.8C87.1,30.1,81,17.4,69.7,10.5z M61.5,27.2l1.3-0.4c0.8,0.2,1.4,0.7,1.8,1.4  c0.5,0.8,0.6,1.7,0.4,2.6c-0.3,1.2-1.3,2-2.5,2l-7.7,0.2C56,30.3,58.4,28.1,61.5,27.2z M32.8,33.7c-1.9,0-3.7-0.9-4.6-2.5  c-0.6-1-0.7-2.2-0.2-3.3c0.5-1.1,1.4-1.8,2.5-2.1l0.3,0c2.9-0.3,5.8,0.6,7.9,2.7c1.5,1.4,2.4,3.2,2.8,5.1L32.8,33.7z"
     id="path104"
     style="fill:#ffffff" /></svg>