<?xml version="1.0" encoding="UTF-8" standalone="no"?>
<svg
   xmlns:dc="http://purl.org/dc/elements/1.1/"
   xmlns:cc="http://creativecommons.org/ns#"
   xmlns:rdf="http://www.w3.org/1999/02/22-rdf-syntax-ns#"
   xmlns:svg="http://www.w3.org/2000/svg"
   xmlns="http://www.w3.org/2000/svg"
   xmlns:sodipodi="http://sodipodi.sourceforge.net/DTD/sodipodi-0.dtd"
   xmlns:inkscape="http://www.inkscape.org/namespaces/inkscape"
   version="1.1"
   x="0px"
   y="0px"
   viewBox="0 0 100 125"
   enable-background="new 0 0 100 100"
   xml:space="preserve"
   id="svg116"
   inkscape:version="0.91 r13725"
   sodipodi:docname="noun_75867_cc-ffffff.svg"><metadata
     id="metadata128"><rdf:RDF><cc:Work
         rdf:about=""><dc:format>image/svg+xml</dc:format><dc:type
           rdf:resource="http://purl.org/dc/dcmitype/StillImage" /><dc:title></dc:title></cc:Work></rdf:RDF></metadata><defs
     id="defs126" /><sodipodi:namedview
     pagecolor="#ffffff"
     bordercolor="#666666"
     borderopacity="1"
     objecttolerance="10"
     gridtolerance="10"
     guidetolerance="10"
     inkscape:pageopacity="0"
     inkscape:pageshadow="2"
     inkscape:window-width="640"
     inkscape:window-height="480"
     id="namedview124"
     showgrid="false"
     inkscape:zoom="1.888"
     inkscape:cx="50"
     inkscape:cy="62.5"
     inkscape:window-x="0"
     inkscape:window-y="0"
     inkscape:window-maximized="0"
     inkscape:current-layer="svg116" /><path
     d="M55.191,96.5c-0.188,0-0.375-0.004-0.559-0.014c-2.252-0.129-4.683-1.6-5.916-3.58c-0.262-0.422-0.465-0.857-0.605-1.301  c-3.098-0.229-5.896-0.789-6.633-1.139c-1.15-0.547-2.458-1.123-3.851-1.736c-6.456-2.846-14.491-6.389-18.032-11.537  c-1.337-1.943-1.974-4.154-2.59-6.293c-0.385-1.338-0.75-2.6-1.264-3.74c-0.34-0.754-0.7-1.459-1.051-2.148  c-1.212-2.379-2.466-4.84-2.332-8.229c0.123-3.113,1.942-5.637,3.548-7.864c1.463-2.03,2.748-3.813,2.801-5.762  c-0.256,0.34-0.555,0.656-0.904,0.946c-0.49,0.409-1.186,0.465-1.734,0.134c-1.554-0.934-3.24-4.413-2.834-6.691  c0.233-1.311,1.09-2.2,2.349-2.44c0.27-0.05,0.621-0.066,1.029,0.027c-0.193-0.957-0.43-1.933-0.659-2.876  c-0.465-1.911-0.904-3.717-0.942-5.218c-0.207-8.067,6.158-13.52,10.805-17.501c5.82-4.988,12.775-6.941,20.119-5.652  c9.412,1.653,18.593,8.575,23.958,18.065c1.471,2.601,2.059,4.799,1.941,7.479c1.472,0.119,2.616,1.053,3.058,2.581  c0.584,2.029-0.293,4.769-2.532,5.614c-0.684,0.258-1.295,0.385-1.852,0.356c0.67,2.601,3.399,4.87,6.28,7.263  c2.383,1.979,4.846,4.026,6.275,6.46c3.695,6.291,6.088,16.381,3.508,23.492c-1.789,4.932-7.639,8.895-13.316,9.021  c-0.62-0.016-1.146-0.342-1.39-0.861c-0.531,2.291-1.836,4.613-3.84,6.77C64.434,93.994,59.352,96.5,55.191,96.5z M51.533,91.699  c0.854,1.061,2.268,1.734,3.268,1.791c3.367,0.193,7.896-2.033,11.029-5.404c2.416-2.602,3.572-5.381,3.254-7.826  c-0.18-1.373-0.572-2.238-1.166-2.572c-1.334-0.754-4.301,0.557-6.686,1.607c-1.094,0.482-2.125,0.938-3.107,1.27l-0.352,0.119  c-5.346,1.818-16.466,5.605-21.339,0.705c-3.36-3.375-0.799-8.447,0.295-10.611c1.07-2.119,2.314-4.068,4.125-4.002  c1.441,0.055,2.297,1.252,3.102,2.973c0.283-0.453,0.662-0.863,1.178-1.195c0.656-0.424,1.529-0.273,2.005,0.348  c0.349,0.455,0.675,0.926,0.981,1.406c0.199-1.121,0.632-2.029,1.498-2.486c1.714-0.902,3.55,0.273,5.187,1.682  c-0.068-1.156,0.02-2.338,0.406-3.504c0.158-0.479,0.545-0.844,1.031-0.977c0.484-0.127,1.006-0.01,1.383,0.322  c0.988,0.869,1.668,1.955,2.328,3.006c0.178,0.285,0.354,0.564,0.533,0.836c-0.002-0.455-0.008-0.918-0.014-1.387  c-0.014-1.105-0.029-2.246,0.018-3.357c-0.762-1.053-1.436-2.205-1.783-3.643c-0.617,0.77-1.584,1.494-3.014,2.264  c-3.275,1.762-7.203,2.041-10.25,0.729c-6.924-2.98-7.62-10.523-8.179-16.585c-0.111-1.205-0.216-2.343-0.36-3.423  c-0.091-0.677-0.255-1.495-0.428-2.361c-0.741-3.697-1.662-8.298,0.852-11.331c1.888-2.279,5.558-2.771,8.237-3.129  c0.32-0.043,0.625-0.084,0.908-0.126c0.568-0.083,1.168-0.219,1.748-0.351c0.012-0.002,0.021-0.004,0.032-0.007  c-1.774,0.148-3.577,0.382-5.286,0.677c-2.754,0.474-5.156,1.377-7.141,2.684c-1.365,0.9-1.766,1.567-2.491,2.777  c-0.338,0.563-0.722,1.202-1.265,1.969c-1.543,2.174-4.07,3.295-6.141,2.732c-0.875-0.238-2.939-1.169-3.236-4.651  c-0.199-2.352,1.016-4.868,3.094-6.413c1.841-1.369,3.98-1.726,5.869-0.978c0.77,0.305,1.146,1.177,0.842,1.946  c-0.305,0.771-1.176,1.152-1.947,0.843c-1.278-0.508-2.506,0.248-2.975,0.596c-1.244,0.925-2.005,2.433-1.893,3.752  c0.056,0.661,0.265,1.801,1.035,2.011c0.742,0.202,2.024-0.333,2.904-1.574c0.478-0.672,0.814-1.233,1.139-1.775  c0.793-1.321,1.477-2.463,3.414-3.739c2.332-1.536,5.118-2.591,8.282-3.136c4.731-0.813,16.141-2.265,19.915,1.856  c0.832,0.911,1.688,2.517,1.029,4.997c-0.607,2.302-3.686,4.634-6.408,4.065c-2.668-0.554-3.025-2.398-3.26-3.619  c-0.117-0.599-0.217-1.114-0.533-1.555c-0.855-1.186-1.863-1.088-4.318-0.531c-0.635,0.144-1.292,0.292-1.974,0.393  c-0.294,0.043-0.612,0.086-0.946,0.131c-2.065,0.276-5.186,0.693-6.326,2.069c-1.602,1.932-0.835,5.756-0.22,8.828  c0.183,0.915,0.356,1.779,0.46,2.552c0.152,1.142,0.26,2.31,0.375,3.546c0.535,5.816,1.09,11.83,6.377,14.105  c2.229,0.961,5.156,0.725,7.642-0.615c2.723-1.463,2.625-1.838,1.996-4.271c-0.281-1.08-1.043-4.709,0.896-6.028  c1.055-0.718,2.377-0.504,3.926,0.626c2.199,1.605,1.395,4.15,0.863,5.833c-0.252,0.793-0.512,1.615-0.496,2.223  c0.049,1.994,0.961,3.27,2.152,4.783c1.133,0.879,1.996,2.104,2.389,3.426c0.213,0.725-0.145,1.496-0.838,1.799  c-0.584,0.254-1.252,0.111-1.678-0.33c0.014,1.463,0.008,2.953-0.164,4.373c-0.061,0.5-0.365,0.934-0.813,1.16  c-0.449,0.225-0.98,0.213-1.416-0.033c-1.412-0.799-2.338-1.979-3.107-3.143c0.107,0.627,0.244,1.26,0.381,1.887l0.064,0.295  c0.121,0.566-0.092,1.152-0.551,1.506s-1.078,0.41-1.596,0.15c-0.652-0.332-1.346-0.979-2.223-1.799  c-0.682-0.635-2.184-2.037-2.941-2.316c-0.24,0.891-0.111,3.148-0.061,4.059c0.047,0.814,0.084,1.457,0.047,1.918  c-0.053,0.682-0.558,1.24-1.231,1.361c-0.671,0.117-1.341-0.229-1.626-0.85c-0.639-1.387-1.335-2.898-2.161-4.316  c-0.034,0.209-0.065,0.424-0.095,0.637c-0.064,0.451-0.129,0.898-0.222,1.313c-0.14,0.631-0.667,1.1-1.308,1.168  c-0.647,0.059-1.256-0.285-1.521-0.871c-0.343-0.752-0.652-1.496-0.941-2.193c-0.395-0.951-0.908-2.184-1.291-2.783  c-0.256,0.297-0.683,0.904-1.301,2.127c-1.324,2.623-2.461,5.523-0.847,7.145c3.552,3.57,13.85,0.068,18.247-1.43l0.355-0.119  c0.857-0.291,1.83-0.721,2.859-1.174c3.154-1.389,6.729-2.965,9.369-1.479c1.463,0.824,2.359,2.439,2.668,4.801  c0.078,0.604,0.096,1.217,0.055,1.838c0.268-0.295,0.648-0.482,1.077-0.492c4.451-0.1,9.189-3.26,10.563-7.045  c2.24-6.174-0.016-15.402-3.273-20.949c-1.164-1.98-3.424-3.858-5.607-5.672c-3.394-2.82-6.903-5.736-7.446-9.735  c-0.563-4.127,0.244-6.235,1.309-7.306c0.002-0.015,0.004-0.029,0.006-0.042c0.33-2.714-0.053-4.557-1.457-7.041  C62.348,14.699,53.969,8.343,45.417,6.84c-6.43-1.129-12.531,0.591-17.648,4.976c-4.423,3.79-9.928,8.506-9.757,15.147  c0.03,1.18,0.433,2.834,0.859,4.585c0.52,2.143,1.104,4.545,1.144,6.771c0.901,1.475,1.543,3.056,1.632,3.745  c0.443,3.411-1.463,6.054-3.305,8.609c-1.489,2.067-2.896,4.018-2.983,6.229c-0.103,2.605,0.875,4.525,2.007,6.748  c0.371,0.729,0.752,1.479,1.112,2.275c0.604,1.336,1.015,2.764,1.413,4.143c0.574,1.996,1.118,3.883,2.18,5.424  c3.059,4.447,10.661,7.799,16.77,10.492c1.42,0.627,2.753,1.215,3.926,1.771c0.809,0.383,2.99,0.713,5.32,0.869  c0.055-0.18,0.119-0.359,0.195-0.537c0.77-1.814,3.283-3.035,5.255-3.262c1.729-0.199,3.123,0.295,3.928,1.393  c1.371,1.877,0.572,3.225,0.166,3.715C56.617,91.156,54.203,91.625,51.533,91.699z M54.254,87.783c-0.115,0-0.24,0.008-0.375,0.023  c-0.891,0.102-1.771,0.51-2.314,0.906c1.631-0.037,2.998-0.207,3.584-0.563c-0.027-0.045-0.063-0.098-0.107-0.16  C54.957,87.877,54.672,87.783,54.254,87.783z M58.904,52.895c-0.049,0.592,0.031,1.596,0.268,2.502c0,0.004,0.002,0.01,0.002,0.014  c0.467-1.514,0.492-1.99,0.148-2.24C59.156,53.049,59.018,52.961,58.904,52.895z M16.157,38.2c-0.05,0.513,0.242,1.45,0.615,2.23  c0.124-0.377,0.198-0.793,0.232-1.24C16.706,38.76,16.41,38.402,16.157,38.2z M71.371,32.424c-0.168,0.676-0.453,1.87-0.439,2.514  c0.096-0.024,0.219-0.063,0.371-0.119c0.609-0.23,0.902-1.297,0.707-1.977C71.928,32.558,71.836,32.367,71.371,32.424z   M53.238,26.31c0.859,0.306,1.678,0.883,2.396,1.879c0.703,0.977,0.9,1.995,1.045,2.739c0.201,1.041,0.213,1.104,0.924,1.251  c1.004,0.214,2.662-0.997,2.9-1.896c0.336-1.27-0.035-1.865-0.344-2.203C59.094,26.917,56.459,26.393,53.238,26.31z"
     id="path118"
     style="fill:#ffffff" /></svg>