<?xml version="1.0" encoding="UTF-8" standalone="no"?>
<svg
   xmlns:dc="http://purl.org/dc/elements/1.1/"
   xmlns:cc="http://creativecommons.org/ns#"
   xmlns:rdf="http://www.w3.org/1999/02/22-rdf-syntax-ns#"
   xmlns:svg="http://www.w3.org/2000/svg"
   xmlns="http://www.w3.org/2000/svg"
   xmlns:sodipodi="http://sodipodi.sourceforge.net/DTD/sodipodi-0.dtd"
   xmlns:inkscape="http://www.inkscape.org/namespaces/inkscape"
   version="1.1"
   x="0px"
   y="0px"
   viewBox="0 0 316 435"
   enable-background="new 0 0 316 348"
   xml:space="preserve"
   id="svg144"
   inkscape:version="0.91 r13725"
   sodipodi:docname="noun_77351_cc0-ffffff.svg"><metadata
     id="metadata184"><rdf:RDF><cc:Work
         rdf:about=""><dc:format>image/svg+xml</dc:format><dc:type
           rdf:resource="http://purl.org/dc/dcmitype/StillImage" /><dc:title></dc:title></cc:Work></rdf:RDF></metadata><defs
     id="defs182" /><sodipodi:namedview
     pagecolor="#ffffff"
     bordercolor="#666666"
     borderopacity="1"
     objecttolerance="10"
     gridtolerance="10"
     guidetolerance="10"
     inkscape:pageopacity="0"
     inkscape:pageshadow="2"
     inkscape:window-width="1920"
     inkscape:window-height="993"
     id="namedview180"
     showgrid="false"
     inkscape:zoom="0.54252874"
     inkscape:cx="158"
     inkscape:cy="217.5"
     inkscape:window-x="0"
     inkscape:window-y="0"
     inkscape:window-maximized="1"
     inkscape:current-layer="svg144" /><g
     id="g158"
     transform="matrix(1.7713496,0,0,1.790964,-694.00336,380.50744)"
     style="fill:#ffffff"><g
       id="g160"
       style="fill:#ffffff"><path
         d="m 457.555,-56.01 c 8.924,0.455 18.046,2.074 26.83,-0.338 9.195,-2.524 12.626,-10.161 12.547,-19.17 -0.009,-1.053 -3.718,-0.275 -3.854,0.792 -1.839,14.327 -33.589,3.854 -21.884,-7.377 -1.15,0.015 -2.3,0.029 -3.449,0.043 -0.984,4.527 -4.652,5.64 -8.847,5.871 -1.424,0.079 -7.875,0.578 -8.133,-1.056 -1.021,-6.48 2.657,-13.13 5.499,-18.676 5.95,-11.614 10.144,-22.468 -0.05,-33.083 -5.544,-5.773 -18.449,-8.655 -24.34,-2.013 -3.979,4.487 0.301,10.734 3.907,13.74 4.006,3.338 9.186,3.659 13.724,1.411 0.373,-0.185 1.064,-0.735 0.632,-1.191 -6.955,-7.338 -17.727,-8.826 -26.624,-4.24 -3.37,1.736 -5.432,4.974 -6.846,8.359 -2.405,5.756 -3.89,12.254 -5.567,18.249 -3.235,11.557 -0.106,23.163 8.819,31.197 7.308,6.577 20.741,11.131 22.372,22.022 0.935,6.237 -4.38,17.138 1.35,22.005 2.371,2.014 6.291,1.993 9.193,2.106 5.188,0.201 10.372,-0.633 15.425,-1.716 11.468,-2.459 22.504,-7.42 32.528,-13.42 9.827,-5.882 17.327,-13.293 24.443,-22.159 6.387,-7.958 12.312,-16.281 16.488,-25.631 3.938,-8.817 5.174,-18.531 5.333,-28.11 0.274,-16.527 -6.563,-30.851 -23.512,-34.903 -0.662,0.651 -1.324,1.303 -1.985,1.954 7.265,-0.328 14.072,1.765 20.032,5.896 4.365,3.026 6.818,7.357 9.396,11.853 2.395,4.175 5.687,11.184 11.347,7.383 2.119,-1.423 2.912,-5.67 2.849,-7.993 -0.103,-3.759 -1.749,-7.141 -3.618,-10.328 -4.767,-8.129 -11.71,-15.038 -18.377,-21.604 -6.194,-6.1 -12.52,-12.203 -18.997,-18 -8.178,-7.32 -18.078,-9.831 -28.828,-8.142 -8.507,1.336 -16.852,7.363 -11.623,16.463 4.92,8.564 17.282,9.469 24.663,14.973 3.678,2.742 7.212,8.1 6.773,12.869 -0.396,4.326 -7.218,7.052 -10.649,8.24 -7.811,2.703 -15.946,5.24 -22.863,9.902 -5.974,4.027 -12.057,10.605 -9.245,18.364 2.292,6.323 11.089,8.651 17.061,7.992 7.021,-0.774 12.858,-4.8 17.446,-10.017 4.265,-4.848 5.64,-11.222 -1.462,-13.804 -5.059,-1.838 -11.954,0.708 -15.597,4.35 -4.862,4.863 -2.087,8.92 3.932,10.243 0.92,0.202 2.753,-0.254 3.129,-1.238 1.779,-4.658 1.138,-8.412 -4.477,-8.05 -0.799,0.052 -2.753,0.38 -2.711,1.508 0.168,4.488 2.593,5.741 6.726,6.446 0.864,0.147 2.479,-0.17 2.988,-0.984 1.052,-1.684 0.452,-0.895 0.808,-2.92 0.232,-1.323 -3.639,-0.634 -3.846,0.549 -0.103,0.582 -0.223,1.927 -0.526,2.413 0.996,-0.328 1.992,-0.656 2.988,-0.984 -3.638,-0.62 -5.138,-1.897 -5.274,-5.554 -0.903,0.502 -1.808,1.005 -2.711,1.508 4.799,-0.31 3.108,4.211 2.189,6.617 1.043,-0.413 2.086,-0.825 3.129,-1.238 -5.451,-1.198 -6.591,-5.016 -2.366,-8.687 3.779,-3.284 13.384,-3.739 12.949,3.245 -0.279,4.489 -4.957,8.551 -8.191,11.085 -5.113,4.007 -11.127,4.542 -16.985,1.826 -5.143,-2.384 -6.935,-7.558 -5.355,-12.78 1.689,-5.586 7.626,-9.153 12.441,-11.688 8.578,-4.517 18.35,-6.009 26.413,-11.534 7.99,-5.475 1.896,-15.396 -4.072,-19.846 -8.219,-6.129 -21.844,-6.366 -25.159,-17.769 -2.475,-8.511 10.293,-10.112 15.703,-10.115 7.264,-0.003 13.624,3.646 18.998,8.204 6.601,5.598 12.808,11.955 18.997,18 5.962,5.824 11.762,11.92 16.548,18.764 2.097,2.999 3.888,6.267 4.827,9.818 0.352,1.328 0.423,2.703 0.259,4.061 -0.129,1.06 -0.493,2.11 -0.798,3.128 -0.573,1.915 -1.652,1.424 0.181,1.908 -2.575,-0.68 -4.587,-5.611 -5.748,-7.619 -1.664,-2.88 -3.233,-5.866 -5.377,-8.427 -6.229,-7.445 -16.961,-10.691 -26.356,-10.267 -0.791,0.036 -4.158,1.434 -1.985,1.954 25.767,6.16 25.203,38.576 17.927,58.713 -4.678,12.945 -13.906,23.834 -22.503,34.344 -7.984,9.762 -19.716,16.565 -31.073,21.639 -10.353,4.623 -25.107,9.997 -36.544,6.596 -7.546,-2.244 -2.343,-16.843 -2.779,-22.427 -0.78,-9.959 -13.894,-15.642 -20.814,-20.938 -4.306,-3.295 -7.512,-7.379 -9.646,-12.368 -3.229,-7.546 -2.05,-15.195 0.228,-22.794 1.803,-6.017 3.022,-13.182 6.472,-18.521 5.63,-8.716 18.37,-4.567 24.138,1.518 0.211,-0.397 0.422,-0.794 0.632,-1.191 -9.186,4.549 -20.19,-17.341 -5.7,-15.843 8.277,0.855 15.216,7.324 17.162,15.292 3.672,15.034 -13.967,26.917 -11.557,42.204 0.046,0.292 0.497,0.423 0.726,0.446 7.638,0.761 21.611,2.143 23.796,-7.905 0.303,-1.392 -2.995,-0.392 -3.449,0.043 -7.605,7.297 -0.951,13.808 7.369,15.708 7.203,1.645 20.187,1.14 21.413,-8.418 -1.285,0.264 -2.569,0.528 -3.854,0.792 0.08,9.176 -3.501,15.975 -13.103,17.225 -6.882,0.896 -13.969,-0.382 -20.853,-0.733 -1.329,-0.071 -4.165,1.845 -1.563,1.978 l 0,0 z"
         id="path162"
         inkscape:connector-curvature="0"
         style="fill:#ffffff" /></g></g></svg>