<?xml version="1.0" encoding="UTF-8" standalone="no"?>
<svg
   xmlns:dc="http://purl.org/dc/elements/1.1/"
   xmlns:cc="http://creativecommons.org/ns#"
   xmlns:rdf="http://www.w3.org/1999/02/22-rdf-syntax-ns#"
   xmlns:svg="http://www.w3.org/2000/svg"
   xmlns="http://www.w3.org/2000/svg"
   xmlns:sodipodi="http://sodipodi.sourceforge.net/DTD/sodipodi-0.dtd"
   xmlns:inkscape="http://www.inkscape.org/namespaces/inkscape"
   version="1.1"
   x="0px"
   y="0px"
   viewBox="0 0 316 435"
   enable-background="new 0 0 316 348"
   xml:space="preserve"
   id="svg144"
   inkscape:version="0.91 r13725"
   sodipodi:docname="noun_77351_cc1-ffffff.svg"><metadata
     id="metadata184"><rdf:RDF><cc:Work
         rdf:about=""><dc:format>image/svg+xml</dc:format><dc:type
           rdf:resource="http://purl.org/dc/dcmitype/StillImage" /><dc:title></dc:title></cc:Work></rdf:RDF></metadata><defs
     id="defs182" /><sodipodi:namedview
     pagecolor="#ffffff"
     bordercolor="#666666"
     borderopacity="1"
     objecttolerance="10"
     gridtolerance="10"
     guidetolerance="10"
     inkscape:pageopacity="0"
     inkscape:pageshadow="2"
     inkscape:window-width="1920"
     inkscape:window-height="993"
     id="namedview180"
     showgrid="false"
     inkscape:zoom="0.54252874"
     inkscape:cx="158"
     inkscape:cy="217.5"
     inkscape:window-x="0"
     inkscape:window-y="0"
     inkscape:window-maximized="1"
     inkscape:current-layer="svg144" /><g
     id="g146"
     transform="translate(-1.8432203,361.27119)"
     style="fill:#ffffff"><g
       id="g148"
       style="fill:#ffffff"><path
         d="m 115.817,-77.287 c 10.148,1.126 11.625,16.107 22.618,14.579 8.876,-1.234 14.862,-13.979 12.833,-21.933 -1.168,-4.576 -12.225,-10.622 -14.811,-4.16 -1.633,4.08 2.688,8.789 5.779,10.798 5.126,3.332 11.047,5.103 17.167,4.735 0.65,-0.039 2.082,-0.507 2.196,-1.31 0.993,-6.957 2.643,-13.805 3.281,-20.812 0.559,-6.135 -0.22,-12.323 0.278,-18.476 0.845,-10.444 7.997,-17.875 17.867,-20.421 4.899,-1.264 7.227,1.673 6.881,6.338 -0.342,4.604 -3.902,7.561 -8.126,8.626 -7.24,1.826 -15.481,-3.103 -8.563,-10.029 -1.16,0.067 -2.32,0.135 -3.48,0.202 0.42,1.362 1.229,2.486 2.138,3.571 0.799,0.953 3.841,0.064 3.726,-1.273 -0.744,-8.647 9.857,-11.87 16.554,-13.165 6.882,-1.332 15.939,-2.067 22.362,1.367 7.206,3.852 5.789,19.157 5.31,25.634 -0.901,12.169 -6.678,22.559 -13.784,32.264 -3.835,5.239 -8.221,10.033 -12.17,15.18 -3.931,5.123 -7.906,10.203 -12.51,14.747 -10.896,10.753 -25.245,13.896 -39.752,8.992 -22.211,-7.507 -38.241,-31.179 -46.929,-51.782 -4.128,-9.79 -7.058,-21.076 -4.414,-31.627 -1.242,0.333 -2.484,0.665 -3.726,0.998 6.501,9.099 5.217,18.282 -5.147,23.367 -8.415,4.129 -20.769,5.738 -29.712,2.423 -7.818,-2.899 -12.37,-11.833 -13.548,-19.607 -0.516,-3.405 -0.227,-7.16 1.632,-10.132 2.856,-4.566 9.17,-2.202 13.032,-0.539 1.023,0.44 4.732,-0.851 3.075,-1.867 -8.453,-5.182 -18.474,-8.964 -24.335,-17.386 -3.552,-5.104 -3.376,-12.311 0.019,-17.415 4.504,-6.77 14.555,-1.367 18.984,2.489 0.915,0.796 3.813,0.173 3.726,-1.273 -0.079,-1.303 -2.88,-13.741 -3.115,-13.769 1.071,0.127 4.677,-1.516 2.367,-2.095 -5.152,-1.291 -8.216,-4.088 -4.905,-9.049 2.106,-3.156 5.611,-5.595 8.92,-7.333 0.568,-0.298 1.129,-1.102 0.339,-1.504 -7.921,-4.043 -12.311,-17.083 -1.491,-20.696 5.3,-1.771 9.933,-2.299 14.531,-5.729 1.919,-1.431 3.497,-3.252 5.124,-4.99 2.926,-3.125 6.939,-2.809 10.918,-2.341 7.409,0.872 15.512,3.423 19.586,10.112 0.661,1.085 4.397,-0.124 3.588,-1.511 -6.588,-11.293 -4.166,-21.893 6.789,-29.012 4.562,-2.964 9.864,-4.938 15.103,-6.309 7.581,-1.983 13.327,-6.558 20.521,-0.502 3.63,3.056 5.426,8.459 7.029,12.762 1.706,4.578 3.009,9.334 3.998,14.117 2.137,10.337 -0.572,27.499 -14.056,28.208 -7.074,0.372 -3.296,-12.529 -2.136,-15.737 3.644,-10.071 12.129,-16.249 21.885,-20.001 6.017,-2.314 12.506,-3.322 18.905,-3.787 5.967,-0.434 12.961,-0.569 18.484,1.969 7.634,3.509 7.052,16.146 9.753,22.898 0.895,-0.537 1.789,-1.074 2.684,-1.611 0.728,0 0.205,-0.427 -0.291,-0.995 -1.196,0.503 -2.393,1.007 -3.589,1.511 9.913,6.96 18.437,15.777 29.81,20.441 8.886,3.644 18.251,5.988 26.165,11.701 3.519,2.541 6.585,6.133 6.555,10.679 -0.028,4.309 -5.341,7.605 -8.562,9.396 -4.389,2.44 -9.688,3.81 -14.703,3.595 -5.494,-0.235 -11.409,-6.831 -8.536,-12.281 3.728,-7.071 19.085,10.424 21.348,13.213 2.271,2.801 4.945,6.15 2.793,9.668 -2.457,4.016 -9.595,4.579 -13.7,5.836 -7.464,2.286 -8.899,7.158 -7.867,14.528 0.652,4.656 2.09,9.253 1.824,13.996 -0.409,7.308 -10.691,9.02 -12.067,1.288 -0.732,0.528 -1.464,1.056 -2.196,1.584 9.457,-0.603 10.44,17.026 9.917,23.112 -0.407,4.735 -2.232,7.676 -6.397,10.066 -5.052,2.899 -12.837,4.186 -16.794,-1 -0.701,-0.919 -4.06,-0.036 -3.726,1.273 0.783,3.076 6.616,20.67 1.143,21.689 -5.148,0.959 -10.328,-4.188 -12.09,-8.397 -1.541,-3.682 -2.324,-12.846 4.005,-11.707 9.317,1.677 7.751,22.636 -0.506,18.738 -4.904,-2.315 -5.167,-8.043 -3.876,-12.604 0.667,-2.356 2.015,-4.521 3.769,-6.214 3.11,-3.001 6.372,0.15 8.359,2.733 0.805,1.046 4.53,-0.286 3.588,-1.511 -10.117,-13.149 -26.345,5.788 -18.159,16.964 3.269,4.463 10.93,4.938 14.386,0.522 3.795,-4.85 3.552,-12.376 0.131,-17.333 -3.052,-4.423 -11.33,-5.21 -14.727,-0.74 -3.958,5.21 -1.577,13.264 2.642,17.559 3.735,3.804 12.042,6.097 16.376,2.117 4.178,-3.838 1.413,-12.694 0.295,-17.221 -0.465,-1.884 -0.994,-3.751 -1.473,-5.631 -1.242,0.424 -2.484,0.849 -3.726,1.273 7.09,9.291 27.144,2.605 30.058,-7.656 2.61,-9.195 0.184,-28.985 -12.665,-28.166 -0.704,0.045 -2.369,0.613 -2.196,1.584 1.283,7.208 10.997,8.392 15.969,3.997 6.662,-5.888 2.902,-14.914 1.845,-22.464 -0.755,-5.391 0.124,-9.058 5.608,-10.737 3.906,-1.196 8.145,-1.847 11.727,-3.922 2.42,-1.403 5.308,-3.703 5.395,-6.784 0.081,-2.858 -2.446,-5.848 -4.075,-7.951 -4.534,-5.854 -11.155,-12.572 -18.213,-15.294 -6.292,-2.428 -12.577,3.585 -10.947,9.798 4.421,16.847 32.688,5.5 38.667,-4.042 6.814,-10.875 -11.996,-19.316 -19.168,-22.27 -6.275,-2.584 -12.897,-4.366 -18.891,-7.578 -8.597,-4.607 -15.583,-11.782 -23.524,-17.358 -0.91,-0.639 -4.695,0.246 -3.589,1.511 0.177,0.365 0.353,0.73 0.529,1.096 0.058,0.467 0.841,0.576 1.18,0.576 0.222,0 0.444,0 0.667,0 0.589,0 3.124,-0.512 2.684,-1.611 -2.782,-6.956 -2.22,-16.619 -7.973,-22.02 -6.542,-6.142 -19.896,-4.434 -27.936,-3.55 -18.078,1.986 -36.617,10.733 -41.906,29.296 -1.218,4.274 -2.354,11.705 2.928,13.739 6,2.312 14.606,-3.085 18.179,-7.449 6.057,-7.397 5.049,-19.129 2.922,-27.732 -2.261,-9.142 -5.269,-19.959 -13.428,-25.516 -5.529,-3.765 -12.453,-1.022 -17.955,1.146 -6.623,2.61 -13.28,4.155 -19.535,7.728 -4.802,2.743 -9.716,6.849 -11.874,12.083 -2.906,7.051 -0.845,13.878 2.852,20.215 1.196,-0.503 2.392,-1.007 3.588,-1.511 -4.557,-7.483 -13.894,-9.882 -22.059,-10.843 -7.234,-0.852 -12.069,0.673 -16.934,5.894 -3.728,4 -7.81,5.633 -12.997,6.866 -3.479,0.827 -6.775,2.049 -9.367,4.581 -6.736,6.578 -0.808,17.038 6.025,20.526 0.113,-0.501 0.226,-1.003 0.339,-1.504 -4.236,2.225 -9.129,5.715 -11.189,10.193 -2.595,5.642 2.365,8.213 7.204,9.425 0.789,-0.698 1.578,-1.396 2.367,-2.095 -10.762,-1.271 -3.437,11.586 -3.115,16.898 1.242,-0.424 2.484,-0.849 3.726,-1.273 -10.126,-8.817 -27.316,-8.811 -29.024,7.313 -1.606,15.167 17.41,22.072 27.692,28.376 1.025,-0.623 2.05,-1.245 3.075,-1.867 -8.42,-3.626 -19.638,-3.552 -21.607,7.414 -1.758,9.791 4.33,21.259 12.881,25.931 9.821,5.367 25.204,2.465 34.906,-1.643 4.519,-1.913 9.375,-5.071 11.508,-9.674 2.812,-6.066 0.201,-12.101 -3.431,-17.183 -0.71,-0.995 -3.462,-0.052 -3.726,0.998 -5.121,20.442 8.123,43.175 19.883,58.918 13.36,17.886 33.684,32.31 56.97,27.621 10.095,-2.032 18.59,-8.674 25.26,-16.224 3.786,-4.285 7.245,-8.829 10.725,-13.361 4.424,-5.761 9.272,-11.108 13.409,-17.106 6.253,-9.067 10.309,-18.736 11.122,-29.728 0.557,-7.53 1.106,-18.422 -4.311,-24.452 -2.479,-2.76 -7.136,-3.372 -10.579,-3.761 -5.705,-0.644 -11.552,-0.2 -17.173,0.887 -8.048,1.557 -20.86,5.846 -19.973,16.146 1.242,-0.424 2.484,-0.849 3.726,-1.273 -0.792,-0.945 -1.495,-1.905 -1.862,-3.095 -0.379,-1.229 -2.9,-0.379 -3.48,0.202 -2.558,2.562 -5.064,5.907 -2.877,9.459 2.032,3.3 7.472,3.789 10.88,3.691 8.075,-0.23 20.852,-8.261 14.429,-17.787 -4.492,-6.662 -20.319,1.407 -24.014,5.579 -5.925,6.691 -7.446,13.598 -7.48,22.358 -0.02,5.096 0.202,10.131 -0.396,15.208 -0.687,5.832 -2.093,11.568 -2.923,17.383 0.732,-0.437 1.464,-0.874 2.196,-1.31 -7.625,0.458 -18.342,-3.975 -19.896,-12.254 -0.676,-3.597 5.586,1.121 6.354,2.039 2.305,2.755 1.46,7.062 0.565,10.17 -0.994,3.452 -3.062,6.668 -5.669,9.11 -3.819,3.576 -7.563,-0.032 -9.965,-3.036 -3.769,-4.714 -6.649,-9.291 -13.137,-10.01 -1.215,-0.135 -4.552,1.853 -2.374,2.094 l 0,0 z"
         id="path150"
         inkscape:connector-curvature="0"
         style="fill:#ffffff" /></g></g><g
     id="g152"
     transform="translate(-1.8432203,361.27119)"
     style="fill:#ffffff"><g
       id="g154"
       style="fill:#ffffff"><path
         d="m 146.256,-109.278 c 0.739,-11.5 -10.763,-24.875 -20.099,-30.232 -4.09,-2.348 -9.002,-3.716 -13.473,-1.509 -3.88,1.914 -6.519,6.264 -6.083,10.62 1.457,14.576 42.429,12.409 26.203,-9.322 -0.687,-0.921 -3.037,0.125 -3.584,0.747 -2.277,2.588 -3.822,5.623 -4.808,8.918 -0.13,0.435 0.375,0.644 0.714,0.679 4.692,0.482 10.577,-0.642 12.636,-5.55 3.038,-7.24 -0.952,-13.792 -6.264,-18.623 -5.422,-4.932 -11.782,-9.037 -17.724,-13.313 -5.126,-3.69 -12.602,-9.188 -10.185,-16.414 -1.285,0.265 -2.569,0.53 -3.854,0.795 2.92,8.396 -0.89,17.761 -5.152,24.999 -3.462,5.881 -11.438,17.426 -19.467,16.544 -3.986,-0.438 -6.02,-5.19 -6.686,-8.571 -1.487,-7.551 8.177,-4.742 11.202,-1.652 4.449,4.545 2.577,12.288 0.18,17.292 -3.174,6.627 -9.81,12.5 -17.036,14.036 -2.342,0.498 -1.85,2.156 0.447,1.668 12.715,-2.702 30.795,-21.212 20.016,-34.438 -3.336,-4.094 -9.484,-4.677 -14.156,-3.067 -5.646,1.946 -5.28,8.188 -2.48,12.46 6.328,9.656 18.636,0.998 24.275,-4.756 8.26,-8.427 16.945,-23.403 12.72,-35.55 -0.424,-1.22 -3.54,-0.143 -3.854,0.795 -3.502,10.472 11.228,17.667 17.913,22.646 5.577,4.152 12.07,8.266 15.678,14.365 1.827,3.088 1.994,7.007 0.99,10.369 -0.634,2.122 -6.758,6.276 -5.202,2.198 0.833,-2.184 2.125,-4.138 3.658,-5.88 -1.195,0.249 -2.39,0.498 -3.584,0.747 4.3,5.76 6.166,13.914 -3.081,15.054 -5.563,0.686 -13.958,-1.547 -15.557,-7.681 -0.833,-3.197 1.46,-8.616 4.921,-9.248 4.496,-0.821 9.646,3.587 12.713,6.269 6.544,5.72 14.817,15.852 14.218,25.163 -0.089,1.394 3.773,0.575 3.845,-0.558 l 0,0 z"
         id="path156"
         inkscape:connector-curvature="0"
         style="fill:#ffffff" /></g></g></svg>